<svg version="1.2" xmlns="http://www.w3.org/2000/svg" viewBox="0 0 360 355" width="360" height="355">
	<title>e-corp-seeklogo-pdf</title>
	<style>
		.s0 { fill: #ffffff } 
	</style>
	<path id="Path 2" fill-rule="evenodd" class="s0" d="m207.7 313.9v8q-6.9 3.7-14.4 3.7-9.8 0-15.6-5.4-5.8-5.5-5.8-13.4 0-7.9 6.1-13.4 6.1-5.6 16-5.6 7.8 0 13.2 3.2v8.2q-6.6-3.7-12.6-3.7-5.8 0-9.6 3.1-3.7 3.2-3.7 8 0 5 3.7 8.2 3.7 3.1 9.4 3.1 2.8 0 5.4-0.7 2.7-0.8 7.9-3.3zm28-26.1q9.4 0 15.2 5.7 5.8 5.7 5.8 13.2 0 7.7-5.9 13.3-5.9 5.6-15.1 5.6-9.3 0-15.2-5.6-5.8-5.6-5.8-13.3 0-7.5 5.8-13.2 5.8-5.7 15.2-5.7zm0 30.1q5.2 0 8.4-3.1 3.2-3.1 3.2-8.1 0-5.1-3.2-8.2-3.2-3-8.4-3-5.2 0-8.4 3-3.2 3.1-3.2 8.2 0 5 3.2 8.1 3.2 3.1 8.4 3.1zm29-29.5h16.3q5.3 0 8.7 3 3.3 3.1 3.3 7.5 0 6.1-6.3 9 2.8 1.2 5.3 6.7 2.5 5.6 4.8 10.4h-10q-0.9-1.8-3.2-6.9-2.2-5.1-3.8-6.5-1.6-1.5-3.4-1.5h-2.6v14.9h-9.1zm9.1 6.8v8.3h4.8q2.3 0 3.7-1.1 1.3-1.1 1.3-3.1 0-4.1-5.2-4.1zm28.9-6.8h16.4q5.5 0 8.8 3.3 3.3 3.2 3.3 7.6 0 4.6-3.2 7.8-3.3 3.3-8.9 3.3h-7.3v14.7h-9.1zm9.1 6.7v8.5h4.3q5.7 0 5.7-4.2 0-2.4-1.5-3.3-1.5-1-5.2-1zm-256 23.3v6.7h-27.1v-36.7h26.7v6.7h-17.5v7.7h16.7v6.8h-16.7v8.8zm42.9-30l-16.9 37.2h-4l-17.8-37.2h10l9.7 21 9.2-21zm5.7 0h9.1v36.7h-9.1zm46.9 30v6.7h-28v-36.7h9.2v30zm2.4-185.4l61.9-49.9 27.6 34.2-61.9 49.9 13.5 16.8 67-54 27.3 33.8-112.3 90.5-108.6-134.6 112.4-90.6 27.1 33.6-67.1 54.1z"/>
</svg>