<svg version="1.2" xmlns="http://www.w3.org/2000/svg" viewBox="0 0 512 512" width="512" height="512"><defs><linearGradient id="P" gradientUnits="userSpaceOnUse"/><linearGradient id="g1" x1="128.2" y1="101.5" x2="384.6" y2="407" href="#P"><stop stop-color="#ff2680"/><stop offset=".2" stop-color="#ff8e00"/><stop offset=".42" stop-color="#ffe517"/><stop offset=".61" stop-color="#a3e60d"/><stop offset=".81" stop-color="#17bfff"/><stop offset="1" stop-color="#9673ff"/></linearGradient></defs><style>.a{fill:url(#g1)}</style><path class="a" d="m143.4 370.6h11.2v36.4h-35.1q-35.2 0-51.4-14.2-16.2-14.3-16.2-45.5v-31q0-24.2-8.7-33.6-8.7-9.5-31.7-9.5h-9.8v-36.1h9.8q23 0 31.7-9.4 8.7-9.3 8.7-33.6v-33.1q0-31.2 16.2-45.3 16.2-14.2 51.4-14.2h35.1v36.4h-11.2q-22.8 0-29.7 7.1-6.8 6.9-6.8 29.9v26.8q0 25.4-7.3 36.9-7.3 11.4-25 15.5 17.9 4.3 25 15.8 7.3 11.5 7.3 36.7v26.8q0 23.2 6.8 30.3 6.9 6.9 29.7 6.9zm52.5 13.1l85.1-272h35.8l-85.1 272zm162.3 23.3v-36.4h11.3q22.6 0 29.4-6.9 6.9-7.1 6.9-30.3v-26.8q0-25.2 7.3-36.7 7.3-11.5 25.2-15.8-17.9-4.1-25.2-15.5-7.3-11.5-7.3-36.9v-26.8q0-23-6.9-29.9-6.8-7.1-29.4-7.1h-11.3v-36.4h35q35.3 0 51.4 14.2 16.2 14.1 16.2 45.3v33.1q0 24.3 8.7 33.6 8.7 9.4 31.7 9.4h9.9v36.1h-9.9q-23 0-31.7 9.5-8.7 9.4-8.7 33.6v31q0 31.2-16.2 45.5-16.1 14.2-51.4 14.2z"/></svg>