<svg version="1.2" xmlns="http://www.w3.org/2000/svg" viewBox="0 0 402 430" width="402" height="430">
	<style>
		.s0 { fill: #000000 } 
		.s1 { fill: #b71b25 } 
	</style>
	<g id="Layer">
		<path id="Layer" fill-rule="evenodd" class="s0" d="m253.5 1.9c2.2 1 5.4 3.4 7.2 5.2 3.7 3.9 11.9 20.7 10.6 21.9-1.2 1.1-259.8 120-261 120-0.6 0-2.9-4.2-5.2-9.4-4.8-10.8-5.4-18.2-2.2-25.1 3.6-7.7 6.9-9.7 45.7-27.6 20.3-9.4 37.2-17.4 37.7-17.8 0.4-0.4-1.1-4.7-3.4-9.5-4.4-9.5-4.6-13.3-1.1-17.5 0.9-1.1 14.5-7.9 30-15.1 29.7-13.6 33.3-14.7 38.1-11.4 1.8 1.3 8.7 13.6 10.3 18.6 0.2 0.6 16-6 35.9-15.2 19.4-9 36.8-16.9 38.4-17.6 4.4-2 14.3-1.7 19 0.5zm-110.4 23.2c-1.1 0.1-50.9 23.4-51.6 24.1-0.4 0.4 0.8 3.9 2.5 7.8 2.5 5.3 3.7 6.9 4.9 6.5 3-0.9 49.6-22.6 50.4-23.4 0.5-0.5-0.6-4-2.4-8-1.7-3.9-3.4-7.1-3.8-7z"/>
		<path id="Layer" class="s1" d="m313 48.6c-1.4 0.2-5.9 0.9-10 1.5-13.5 2-34 9.8-46.5 17.7l-3 1.9-5.5-10.3-5.6-10.3-17 37.3-17.1 37.4 24.1 4.7c13.3 2.6 31.6 6.2 40.8 8l16.8 3.2-5.5-10.5-5.4-10.4 2.6-3.5c3.9-5 16.5-15.8 25.2-21.5 13.9-9.1 28.9-15.1 45.9-18.5 10.3-2 32.5-2.2 42.1-0.4 3.4 0.7 6.5 1 6.8 0.7 0.9-0.8-16.2-11.5-25-15.6-18.7-8.8-47-13.8-63.7-11.4z"/>
		<path id="Layer" fill-rule="evenodd" class="s0" d="m14.8 159h278.7l-9.1 126.2c-6.6 91.3-9.6 127.3-10.6 129.8-2.2 5.3-6.3 9.5-11.5 12.1l-4.8 2.4-100 0.3c-66 0.2-101.6-0.1-104.8-0.8-9.3-2-17.2-10.1-19.1-19.5-0.3-1.7-4.4-56.1-9.1-121-4.7-64.9-8.7-120.6-9.1-123.8zm57.9 37c-16 0-16.4 0-18.6 2.4l-2.3 2.5 5.1 87.8c2.8 48.3 5.4 90.5 5.7 93.7 0.5 4.3 1.3 6.6 3 8.3 2.2 2.2 3.1 2.3 14.3 2.3 12.5 0 15.9-0.8 17.9-4.1 1-1.6 0.8-20.4-1.3-93.2-1.5-50.2-2.8-92.2-3.1-93.5-0.2-1.2-1.3-3.1-2.4-4.2-1.8-1.8-3.4-2-18.3-2zm81.5 0c-18.1 0-19.5 0.5-20.7 7.2-0.3 1.8-0.4 44.2-0.3 94.1l0.3 90.9 2.8 2.4c2.7 2.3 3.4 2.4 17.3 2.4 15 0 19.4-1 20.8-4.5 0.3-0.9 0.6-43.6 0.6-94.9v-93.3l-2.3-2.1c-2.2-2.1-3.3-2.2-18.5-2.2zm81.3 0h-16.4l-2 2.6c-1.2 1.5-2.1 3.8-2.1 5.3 0 1.4-1.1 39.3-2.5 84.1-3.2 103.9-3.2 99.4 0 102.5 2.3 2.4 3 2.5 14.4 2.5 13.2 0 16.4-0.9 18-4.9 0.9-2.2 10.6-156.5 11.4-180.4 0.2-7.2 0-8-2.2-9.8-2.1-1.7-4-1.9-18.6-1.9z"/>
	</g>
</svg>